# xmcd CD database file
# Copyright (C) 1996 Ti Kan
#
# Track frame offsets:
#  150
#  28752
#  44462
#  61625
#  87532
#  105265
#  128057
#  145902
#  162605
#
# Disc length: 2359 seconds
#
# Revision: 1
# Processed by: cddbd v1.4b41PL1 Copyright (c) Steve Scherf et al.
# Submitted via: CDWizzard Release:4.12
#
DISCID=75093509
DTITLE=Little Milton - Walkin' The Back Streets
DYEAR=1900
DGENRE=
TTITLE0=Walking The Back Streets And Crying
TTITLE1=Before The Honeymoon
TTITLE2=Somebody's Tears
TTITLE3=Blue Monday
TTITLE4=Married Woman
TTITLE5=Eight Men And Four Women
TTITLE6=Open The Door To Your Heart
TTITLE7=Letter Full Of Tears
TTITLE8=Bet You I'll Win
EXTD=
EXTT0=
EXTT1=
EXTT2=
EXTT3=
EXTT4=
EXTT5=
EXTT6=
EXTT7=
EXTT8=
PLAYORDER=
